<svg width="49" height="49" viewBox="0 0 49 49" fill="none" xmlns="http://www.w3.org/2000/svg">
<rect x="0.072998" y="0.0749512" width="48.8539" height="48.8539" rx="24.427" fill="#FC4747"/>
<path d="M17.5435 17.4629C17.8332 14.5502 20.3879 12.1869 24.215 12.1869C28.0421 12.1869 30.5969 14.5502 30.8867 17.4629L31.489 23.8596C31.7073 26.0545 32.651 28.2806 34.1764 29.901C34.939 30.7111 34.353 32.3886 33.2287 32.3886H15.2014C14.0771 32.3886 13.4912 30.7111 14.2537 29.901C15.7791 28.2806 16.7228 26.0545 16.9412 23.8596L17.5435 17.4629Z" stroke="white" stroke-width="1.96823" stroke-linejoin="round"/>
<path d="M21.0167 32.3886H27.4134V32.744C27.4134 34.5104 25.9815 35.9424 24.2151 35.9424C22.4487 35.9424 21.0167 34.5104 21.0167 32.744V32.3886Z" stroke="white" stroke-width="1.96823" stroke-linejoin="round"/>
</svg>
