<svg width="49" height="50" viewBox="0 0 49 50" fill="none" xmlns="http://www.w3.org/2000/svg">
<rect y="0.976227" width="49" height="48.8539" rx="24.427" fill="#BEC8F9"/>
<path d="M19.0938 36.6667V25.9917C18.1021 25.7195 17.2708 25.175 16.6 24.3583C15.9292 23.5417 15.5938 22.5889 15.5938 21.5V13.3333H17.9271V21.5H19.0938V13.3333H21.4271V21.5H22.5938V13.3333H24.9271V21.5C24.9271 22.5889 24.5917 23.5417 23.9208 24.3583C23.25 25.175 22.4187 25.7195 21.4271 25.9917V36.6667H19.0938ZM30.7604 36.6667V27.3333H27.2604V19.1667C27.2604 17.5528 27.8292 16.1771 28.9667 15.0396C30.1042 13.9021 31.4799 13.3333 33.0938 13.3333V36.6667H30.7604Z" fill="#6C7ED7"/>
</svg>
