<svg width="49" height="50" viewBox="0 0 49 50" fill="none" xmlns="http://www.w3.org/2000/svg">
<rect x="0.072998" y="0.342468" width="48.8539" height="48.8539" rx="24.427" fill="#C9E0DD"/>
<path d="M21.9785 34.2228H17.3653C15.9095 34.2228 14.7292 33.0426 14.7292 31.5868V15.1113C14.7292 13.6554 15.9095 12.4752 17.3653 12.4752H24.6145M24.6145 12.4752L31.2047 19.0654M24.6145 12.4752V19.0654H31.2047M31.2047 19.0654V22.3605" stroke="#74BEB4" stroke-width="1.61218" stroke-linecap="round" stroke-linejoin="round"/>
<g clip-path="url(#clip0_577_954)">
<path d="M37.5882 32.3264V31.3941C37.5882 30.9924 37.5882 30.7916 37.51 30.6382C37.4412 30.5033 37.3315 30.3936 37.1966 30.3248C37.0432 30.2466 36.8423 30.2466 36.4407 30.2466H33.2852V27.0912C33.2852 26.6895 33.2852 26.4887 33.2071 26.3353C33.1383 26.2004 33.0286 26.0906 32.8937 26.0219C32.7403 25.9437 32.5394 25.9437 32.1378 25.9437H31.2055C30.8038 25.9437 30.603 25.9437 30.4496 26.0219C30.3147 26.0906 30.205 26.2004 30.1362 26.3353C30.058 26.4887 30.058 26.6895 30.058 27.0912L30.058 30.2466H26.9026C26.5009 30.2466 26.3001 30.2466 26.1467 30.3248C26.0118 30.3936 25.902 30.5033 25.8333 30.6382C25.7551 30.7916 25.7551 30.9924 25.7551 31.3941V32.3264C25.7551 32.728 25.7551 32.9289 25.8333 33.0823C25.902 33.2172 26.0118 33.3269 26.1467 33.3957C26.3001 33.4738 26.5009 33.4738 26.9026 33.4738H30.058L30.058 36.6293C30.058 37.0309 30.058 37.2318 30.1362 37.3852C30.205 37.5201 30.3147 37.6298 30.4496 37.6986C30.603 37.7767 30.8038 37.7767 31.2055 37.7767H32.1378C32.5394 37.7767 32.7403 37.7767 32.8937 37.6986C33.0286 37.6298 33.1383 37.5201 33.2071 37.3852C33.2852 37.2318 33.2852 37.0309 33.2852 36.6293L33.2852 33.4738H36.4407C36.8423 33.4738 37.0432 33.4738 37.1966 33.3957C37.3315 33.3269 37.4412 33.2172 37.51 33.0823C37.5882 32.9289 37.5882 32.728 37.5882 32.3264Z" stroke="#74BEB4" stroke-width="1.46562" stroke-linejoin="round"/>
</g>
<defs>
<clipPath id="clip0_577_954">
<rect width="14.3431" height="14.3431" fill="white" transform="translate(24.5 24.6887)"/>
</clipPath>
</defs>
</svg>
