<svg width="49" height="50" viewBox="0 0 49 50" fill="none" xmlns="http://www.w3.org/2000/svg">
<rect x="0.072998" y="0.976196" width="48.8539" height="48.8539" rx="24.427" fill="#BEC8F9"/>
<path d="M22.1212 27.7514H22.0216C17.966 27.7514 14.6782 31.0391 14.6782 35.0948C14.6782 36.4466 15.7741 37.5425 17.126 37.5425H27.2428M28.9883 17.5837C28.9883 20.2874 26.7965 22.4792 24.0928 22.4792C21.389 22.4792 19.1972 20.2874 19.1972 17.5837C19.1972 14.8799 21.389 12.6881 24.0928 12.6881C26.7965 12.6881 28.9883 14.8799 28.9883 17.5837Z" stroke="#6C7ED7" stroke-width="1.61191" stroke-linecap="round" stroke-linejoin="round"/>
<g clip-path="url(#clip0_577_949)">
<path d="M26.3603 27.0942C27.5634 25.9446 29.514 25.9447 30.7171 27.8923C31.9202 25.9446 33.8708 25.9446 35.0739 27.0942C36.277 28.2527 36.277 30.2016 35.0739 31.3601L30.7171 35.5556L26.3603 31.3601C25.1572 30.2016 25.1572 28.2527 26.3603 27.0942Z" stroke="#6C7ED7" stroke-width="1.61191" stroke-linejoin="round"/>
</g>
<defs>
<clipPath id="clip0_577_949">
<rect width="12.7494" height="12.7494" fill="white" transform="translate(24.3425 24.5592)"/>
</clipPath>
</defs>
</svg>
