<svg width="50" height="50" viewBox="0 0 50 50" fill="none" xmlns="http://www.w3.org/2000/svg">
<g clip-path="url(#clip0_590_1105)">
<path d="M25.0028 49.2229C38.3793 49.2229 49.2231 38.3791 49.2231 25.0026C49.2231 11.6261 38.3793 0.782318 25.0028 0.782318C11.6263 0.782318 0.782471 11.6261 0.782471 25.0026C0.782471 38.3791 11.6263 49.2229 25.0028 49.2229Z" stroke="#F8DB7C" stroke-width="1.56462" stroke-miterlimit="10"/>
<path d="M24.1837 23.3493C26.0769 18.8641 27.1304 13.1584 23.7352 9.15822H25.3468L24.8304 9.88316C22.0819 13.8156 22.7443 19.0049 24.1837 23.3545V23.3493ZM24.1837 23.3493C21.7377 20.0793 20.5695 15.6462 21.7377 11.6303C22.2019 9.81015 23.4066 8.26117 24.5071 6.78522C25.7275 8.22467 26.9062 9.83101 27.3495 11.6981C28.4291 15.8131 26.8801 20.2357 24.1837 23.3493Z" fill="#F8DB7C"/>
<path d="M24.3873 26.6507C22.4941 31.1359 21.4406 36.8415 24.8358 40.8418H23.2242L23.7406 40.1168C26.4891 36.1844 25.8267 30.9951 24.3873 26.6454V26.6507ZM24.3873 26.6507C26.8333 29.9207 28.0015 34.3538 26.8333 38.3697C26.3691 40.1898 25.1644 41.7388 24.0639 43.2148C22.8435 41.7753 21.6648 40.169 21.2215 38.3019C20.1419 34.1869 21.6909 29.7643 24.3873 26.6507Z" fill="#F8DB7C"/>
<path d="M23.0887 24.1838C18.9686 22.1863 13.6019 21.743 9.89377 24.7784L9.1897 25.3416L9.15319 24.1525C14.791 28.2309 19.172 26.9062 24.4969 23.3858C29.634 20.3035 37.8431 18.8954 41.958 24.3768L42.5004 25.133C40.9462 25.9466 39.5433 27.0679 37.8848 27.7511C34.9798 28.8985 31.8715 28.3144 29.0343 27.3704C27.6522 26.9115 26.3171 26.3325 25.0028 25.7171L27.0889 26.3065C30.3851 27.1253 34.1506 28.0067 37.332 26.489C38.5941 25.8579 39.6685 24.9505 40.8889 24.1629L40.6542 25.3625C37.9474 22.0924 33.1179 22.1863 29.3785 23.4328C27.4227 24.0586 25.4044 25.2373 23.6468 26.3117C20.3037 28.3926 15.9749 29.347 12.2251 27.7824C10.3997 27.0836 8.91328 25.9101 7.44775 24.7366C8.7829 23.7405 10.1545 22.6818 11.7765 22.2176C15.5838 20.919 19.8604 21.9777 23.0939 24.1838H23.0887Z" fill="#F8DB7C"/>
</g>
<defs>
<clipPath id="clip0_590_1105">
<rect width="50" height="50" fill="white"/>
</clipPath>
</defs>
</svg>
