<svg width="42" height="44" viewBox="0 0 42 44" fill="none" xmlns="http://www.w3.org/2000/svg">
<path d="M19.8392 19.6355C22.0834 14.3186 23.3323 7.55495 19.3075 2.81301H21.2179L20.6058 3.67238C17.3477 8.33394 18.1328 14.4855 19.8392 19.6416V19.6355ZM19.8392 19.6355C16.9396 15.7591 15.5548 10.504 16.9396 5.7435C17.4899 3.58582 18.918 1.74963 20.2225 0C21.6692 1.70636 23.0664 3.61055 23.5919 5.82387C24.8717 10.7018 23.0355 15.9445 19.8392 19.6355Z" fill="#F8DB7C"/>
<path d="M20.0805 23.549C17.8363 28.8659 16.5874 35.6295 20.6122 40.3714H18.7018L19.3139 39.5121C22.5721 34.8505 21.7869 28.6989 20.0805 23.5428V23.549ZM20.0805 23.549C22.9801 27.4254 24.365 32.6804 22.9801 37.4409C22.4299 39.5986 21.0017 41.4348 19.6972 43.1844C18.2505 41.4781 16.8533 39.5739 16.3278 37.3606C15.048 32.4826 16.8842 27.2399 20.0805 23.549Z" fill="#F8DB7C"/>
<path d="M18.5412 20.6247C13.657 18.2568 7.29529 17.7313 2.89957 21.3295L2.06494 21.9972L2.02166 20.5876C8.70489 25.4223 13.8981 23.8519 20.2104 19.6788C26.3001 16.0249 36.0313 14.3557 40.9093 20.8534L41.5522 21.7499C39.7099 22.7143 38.0468 24.0436 36.0808 24.8535C32.6372 26.2136 28.9524 25.5212 25.5892 24.4022C23.9508 23.8581 22.3681 23.1718 20.8101 22.4423L23.2831 23.1409C27.1904 24.1116 31.6541 25.1564 35.4254 23.3573C36.9216 22.6092 38.1952 21.5335 39.6419 20.5999L39.3637 22.0219C36.155 18.1455 30.43 18.2568 25.9972 19.7344C23.6788 20.4763 21.2862 21.8735 19.2027 23.1471C15.2397 25.6139 10.1083 26.7453 5.66312 24.8906C3.49927 24.0621 1.73727 22.6711 0 21.28C1.58271 20.0992 3.20869 18.8441 5.13143 18.2939C9.64462 16.7545 14.7142 18.0095 18.5473 20.6247H18.5412Z" fill="#F8DB7C"/>
</svg>
