<svg width="50" height="50" viewBox="0 0 50 50" fill="none" xmlns="http://www.w3.org/2000/svg">
<path d="M23.8392 22.6355C26.0834 17.3186 27.3323 10.555 23.3075 5.81301H25.2179L24.6058 6.67238C21.3477 11.3339 22.1328 17.4855 23.8392 22.6416V22.6355ZM23.8392 22.6355C20.9396 18.7591 19.5548 13.504 20.9396 8.7435C21.4899 6.58582 22.918 4.74963 24.2225 3C25.6692 4.70636 27.0664 6.61055 27.5919 8.82387C28.8717 13.7018 27.0355 18.9445 23.8392 22.6355Z" fill="black"/>
<path d="M24.0805 26.549C21.8363 31.8659 20.5874 38.6295 24.6122 43.3714H22.7018L23.3139 42.5121C26.5721 37.8505 25.7869 31.6989 24.0805 26.5428V26.549ZM24.0805 26.549C26.9801 30.4254 28.365 35.6804 26.9801 40.4409C26.4299 42.5986 25.0017 44.4348 23.6972 46.1844C22.2505 44.4781 20.8533 42.5739 20.3278 40.3606C19.048 35.4826 20.8842 30.2399 24.0805 26.549Z" fill="black"/>
<path d="M22.5412 23.6247C17.657 21.2568 11.2953 20.7313 6.89957 24.3295L6.06494 24.9972L6.02166 23.5876C12.7049 28.4223 17.8981 26.8519 24.2104 22.6788C30.3001 19.0249 40.0313 17.3557 44.9093 23.8534L45.5522 24.7499C43.7099 25.7143 42.0468 27.0436 40.0808 27.8535C36.6372 29.2136 32.9524 28.5212 29.5892 27.4022C27.9508 26.8581 26.3681 26.1718 24.8101 25.4423L27.2831 26.1409C31.1904 27.1116 35.6541 28.1564 39.4254 26.3573C40.9216 25.6092 42.1952 24.5335 43.6419 23.5999L43.3637 25.0219C40.155 21.1455 34.43 21.2568 29.9972 22.7344C27.6788 23.4763 25.2862 24.8735 23.2027 26.1471C19.2397 28.6139 14.1083 29.7453 9.66312 27.8906C7.49927 27.0621 5.73727 25.6711 4 24.28C5.58271 23.0992 7.20869 21.8441 9.13143 21.2939C13.6446 19.7545 18.7142 21.0095 22.5474 23.6247H22.5412Z" fill="black"/>
</svg>
