<svg width="22" height="22" viewBox="0 0 22 22" fill="none" xmlns="http://www.w3.org/2000/svg">
<g clip-path="url(#clip0_276_806)">
<path d="M11.0012 21.6581C16.8868 21.6581 21.6581 16.8868 21.6581 11.0011C21.6581 5.11548 16.8868 0.344208 11.0012 0.344208C5.11551 0.344208 0.344238 5.11548 0.344238 11.0011C0.344238 16.8868 5.11551 21.6581 11.0012 21.6581Z" stroke="black" stroke-width="0.688432" stroke-miterlimit="10"/>
<path d="M10.6409 10.2737C11.4739 8.3002 11.9374 5.78972 10.4435 4.02963H11.1526L10.9254 4.3486C9.71609 6.07886 10.0075 8.36216 10.6409 10.276V10.2737ZM10.6409 10.2737C9.56463 8.83488 9.0506 6.88432 9.56463 5.11735C9.76887 4.31647 10.299 3.63493 10.7832 2.9855C11.3201 3.61886 11.8388 4.32565 12.0338 5.14718C12.5088 6.95776 11.8273 8.90373 10.6409 10.2737Z" fill="black"/>
<path d="M10.7304 11.7263C9.89738 13.6998 9.43384 16.2103 10.9277 17.9704H10.2187L10.4458 17.6514C11.6552 15.9211 11.3637 13.6378 10.7304 11.724V11.7263ZM10.7304 11.7263C11.8066 13.1651 12.3207 15.1157 11.8066 16.8827C11.6024 17.6835 11.0723 18.3651 10.5881 19.0145C10.0511 18.3811 9.53251 17.6743 9.33746 16.8528C8.86244 15.0422 9.54399 13.0963 10.7304 11.7263Z" fill="black"/>
<path d="M10.159 10.6409C8.34613 9.76197 5.98481 9.56692 4.35323 10.9025L4.04343 11.1503L4.02737 10.6271C6.50802 12.4216 8.43563 11.8387 10.7786 10.2898C13.0389 8.93356 16.6509 8.31397 18.4615 10.7258L18.7002 11.0585C18.0163 11.4165 17.399 11.9099 16.6693 12.2105C15.3911 12.7153 14.0234 12.4583 12.775 12.043C12.1669 11.841 11.5795 11.5863 11.0012 11.3155L11.9191 11.5748C13.3694 11.9351 15.0262 12.3229 16.426 11.6552C16.9814 11.3775 17.4541 10.9782 17.9911 10.6317L17.8878 11.1595C16.6968 9.72067 14.5719 9.76197 12.9265 10.3104C12.066 10.5858 11.1779 11.1044 10.4045 11.5771C8.9336 12.4928 7.02893 12.9127 5.37899 12.2243C4.57582 11.9168 3.92181 11.4004 3.27698 10.8841C3.86444 10.4458 4.46797 9.97998 5.18164 9.77574C6.85683 9.20434 8.73854 9.67018 10.1613 10.6409H10.159Z" fill="black"/>
</g>
<defs>
<clipPath id="clip0_276_806">
<rect width="22" height="22" fill="white"/>
</clipPath>
</defs>
</svg>
